<svg width="101" height="106" viewBox="0 0 101 106" fill="none" xmlns="http://www.w3.org/2000/svg">
<path d="M88.588 25.1743C95.4429 25.1743 101 19.5389 101 12.5872C101 5.63546 95.4429 0 88.588 0C81.733 0 76.1759 5.63546 76.1759 12.5872C76.1759 19.5389 81.733 25.1743 88.588 25.1743Z" fill="#246CCF"/>
<path d="M50.6217 25.1743C57.4767 25.1743 63.0338 19.5389 63.0338 12.5872C63.0338 5.63546 57.4767 0 50.6217 0C43.7668 0 38.2097 5.63546 38.2097 12.5872C38.2097 19.5389 43.7668 25.1743 50.6217 25.1743Z" fill="#246CCF"/>
<path d="M88.588 65.4039C95.4429 65.4039 101 59.7684 101 52.8167C101 45.865 95.4429 40.2296 88.588 40.2296C81.733 40.2296 76.1759 45.865 76.1759 52.8167C76.1759 59.7684 81.733 65.4039 88.588 65.4039Z" fill="#246CCF"/>
<path d="M50.6217 65.4039C57.4767 65.4039 63.0338 59.7684 63.0338 52.8167C63.0338 45.865 57.4767 40.2296 50.6217 40.2296C43.7668 40.2296 38.2097 45.865 38.2097 52.8167C38.2097 59.7684 43.7668 65.4039 50.6217 65.4039Z" fill="#246CCF"/>
<path d="M88.588 105.632C95.4429 105.632 101 99.997 101 93.0453C101 86.0936 95.4429 80.4581 88.588 80.4581C81.733 80.4581 76.1759 86.0936 76.1759 93.0453C76.1759 99.997 81.733 105.632 88.588 105.632Z" fill="#246CCF"/>
<path d="M50.6211 105.632C57.4761 105.632 63.0332 99.997 63.0332 93.0453C63.0332 86.0936 57.4761 80.4581 50.6211 80.4581C43.7662 80.4581 38.2091 86.0936 38.2091 93.0453C38.2091 99.997 43.7662 105.632 50.6211 105.632Z" fill="#246CCF"/>
<path d="M12.412 25.1743C19.267 25.1743 24.8241 19.5389 24.8241 12.5872C24.8241 5.63546 19.267 0 12.412 0C5.55706 0 0 5.63546 0 12.5872C0 19.5389 5.55706 25.1743 12.412 25.1743Z" fill="#246CCF"/>
<path d="M12.412 65.4039C19.267 65.4039 24.8241 59.7684 24.8241 52.8167C24.8241 45.865 19.267 40.2296 12.412 40.2296C5.55706 40.2296 0 45.865 0 52.8167C0 59.7684 5.55706 65.4039 12.412 65.4039Z" fill="#246CCF"/>
<path d="M12.412 105.632C19.267 105.632 24.8241 99.997 24.8241 93.0453C24.8241 86.0936 19.267 80.4581 12.412 80.4581C5.55706 80.4581 0 86.0936 0 93.0453C0 99.997 5.55706 105.632 12.412 105.632Z" fill="#246CCF"/>
</svg>
