<svg width="17" height="12" viewBox="0 0 17 12" fill="none" xmlns="http://www.w3.org/2000/svg">
<path fill-rule="evenodd" clip-rule="evenodd" d="M10.2 0H3C2.20435 0 1.44129 0.316071 0.87868 0.87868C0.316071 1.44129 0 2.20435 0 3V9.00001C0 9.79566 0.316071 10.5587 0.87868 11.1213C1.44129 11.6839 2.20435 12 3 12H10.2C10.9957 12 11.7587 11.6839 12.3213 11.1213C12.8839 10.5587 13.2 9.79566 13.2 9.00001V3C13.2 2.20435 12.8839 1.44129 12.3213 0.87868C11.7587 0.316071 10.9957 0 10.2 0ZM1.2 3C1.2 2.52261 1.38964 2.06477 1.72721 1.72721C2.06477 1.38964 2.52261 1.2 3 1.2H10.2C10.6774 1.2 11.1352 1.38964 11.4728 1.72721C11.8104 2.06477 12 2.52261 12 3V9.00001C12 9.4774 11.8104 9.93524 11.4728 10.2728C11.1352 10.6104 10.6774 10.8 10.2 10.8H3C2.52261 10.8 2.06477 10.6104 1.72721 10.2728C1.38964 9.93524 1.2 9.4774 1.2 9.00001V3Z" fill="#0F50D0"/>
<path fill-rule="evenodd" clip-rule="evenodd" d="M15.8738 1.29655L12.3002 3.62095C12.2171 3.67478 12.1487 3.7483 12.101 3.83498C12.0532 3.92166 12.0277 4.0188 12.0266 4.11775L11.9942 7.25215C11.993 7.35322 12.0173 7.45297 12.0649 7.54213C12.1125 7.63129 12.1819 7.70697 12.2666 7.76215L15.8714 10.1046C15.9619 10.1636 16.0667 10.197 16.1747 10.2014C16.2827 10.2058 16.3899 10.1809 16.4849 10.1294C16.5799 10.0779 16.6593 10.0017 16.7146 9.90878C16.7698 9.81591 16.799 9.70983 16.799 9.60175V1.80055C16.7992 1.69237 16.7702 1.58613 16.715 1.49309C16.6598 1.40005 16.5805 1.32366 16.4854 1.27201C16.3904 1.22036 16.2831 1.19538 16.175 1.1997C16.0669 1.20402 15.962 1.23748 15.8714 1.29655M15.6002 8.49655L13.199 6.93535L13.2242 4.45135L15.6002 2.90695V8.49655Z" fill="#0F50D0"/>
</svg>
