<svg width="41" height="42" viewBox="0 0 41 42" fill="none" xmlns="http://www.w3.org/2000/svg">
<path d="M20.5 0C9.17802 0 0 9.40188 0 21C0 32.5981 9.17802 42 20.5 42C31.822 42 41 32.5981 41 21C41 9.40188 31.822 0 20.5 0ZM28.384 23.6928C28.384 23.6928 30.1969 25.5259 30.6432 26.3769C30.656 26.3944 30.6624 26.4119 30.6667 26.4206C30.8482 26.7334 30.8909 26.9762 30.8012 27.1578C30.6518 27.4597 30.1393 27.6084 29.9642 27.6216H26.761C26.539 27.6216 26.0734 27.5625 25.5097 27.1644C25.0762 26.8538 24.6491 26.3441 24.2327 25.8475C23.6113 25.1081 23.0732 24.4694 22.5308 24.4694C22.4619 24.4693 22.3934 24.4803 22.3279 24.5022C21.9179 24.6378 21.3926 25.2372 21.3926 26.8341C21.3926 27.3328 21.0082 27.6194 20.737 27.6194H19.27C18.7703 27.6194 16.1672 27.44 13.861 24.9484C11.038 21.8969 8.49682 15.7762 8.47547 15.7194C8.31531 15.3234 8.6463 15.1112 9.00719 15.1112H12.2423C12.6737 15.1112 12.8146 15.3803 12.9129 15.6187C13.0282 15.8966 13.451 17.0013 14.145 18.2438C15.2704 20.2694 15.9601 21.0919 16.5132 21.0919C16.6169 21.0906 16.7187 21.0636 16.81 21.0131C17.5318 20.6019 17.3972 17.9659 17.3652 17.4191C17.3652 17.3162 17.3631 16.24 16.9936 15.7237C16.7289 15.3497 16.2783 15.2075 16.0049 15.155C16.1156 14.9986 16.2613 14.8718 16.4299 14.7853C16.9253 14.5316 17.8179 14.4944 18.7041 14.4944H19.1974C20.1583 14.5075 20.406 14.5709 20.7541 14.6606C21.4588 14.8334 21.4737 15.2994 21.4118 16.8941C21.3926 17.3469 21.3734 17.8588 21.3734 18.4625C21.3734 18.5938 21.367 18.7337 21.367 18.8825C21.3456 19.6941 21.32 20.615 21.8795 20.9934C21.9525 21.0403 22.0368 21.0653 22.1229 21.0656C22.3172 21.0656 22.9023 21.0656 24.4868 18.2809C24.9755 17.3846 25.4001 16.4532 25.7574 15.4941C25.7894 15.4372 25.8834 15.2622 25.9944 15.1944C26.0764 15.1516 26.1672 15.1298 26.2592 15.1309H30.0624C30.4767 15.1309 30.7607 15.1944 30.8141 15.3584C30.908 15.6187 30.797 16.4128 29.0609 18.8213L28.2857 19.8691C26.7119 21.9822 26.7119 22.0894 28.384 23.6928Z" fill="#246CCF"/>
</svg>
