<svg width="42" height="43" viewBox="0 0 42 43" fill="none" xmlns="http://www.w3.org/2000/svg">
<path d="M36.0613 10.2477C38.8517 10.2477 41.1138 7.95365 41.1138 5.12383C41.1138 2.29402 38.8517 0 36.0613 0C33.2709 0 31.0088 2.29402 31.0088 5.12383C31.0088 7.95365 33.2709 10.2477 36.0613 10.2477Z" fill="white"/>
<path d="M20.6065 10.2477C23.3969 10.2477 25.659 7.95365 25.659 5.12383C25.659 2.29402 23.3969 0 20.6065 0C17.816 0 15.5539 2.29402 15.5539 5.12383C15.5539 7.95365 17.816 10.2477 20.6065 10.2477Z" fill="white"/>
<path d="M36.0613 26.6238C38.8517 26.6238 41.1138 24.3298 41.1138 21.5C41.1138 18.6702 38.8517 16.3762 36.0613 16.3762C33.2709 16.3762 31.0088 18.6702 31.0088 21.5C31.0088 24.3298 33.2709 26.6238 36.0613 26.6238Z" fill="white"/>
<path d="M20.6065 26.6238C23.3969 26.6238 25.659 24.3298 25.659 21.5C25.659 18.6702 23.3969 16.3762 20.6065 16.3762C17.816 16.3762 15.5539 18.6702 15.5539 21.5C15.5539 24.3298 17.816 26.6238 20.6065 26.6238Z" fill="white"/>
<path d="M36.0613 42.9996C38.8518 42.9996 41.1139 40.7056 41.1139 37.8758C41.1139 35.046 38.8518 32.752 36.0613 32.752C33.2709 32.752 31.0088 35.046 31.0088 37.8758C31.0088 40.7056 33.2709 42.9996 36.0613 42.9996Z" fill="white"/>
<path d="M20.6063 42.9996C23.3967 42.9996 25.6588 40.7056 25.6588 37.8758C25.6588 35.046 23.3967 32.752 20.6063 32.752C17.8158 32.752 15.5537 35.046 15.5537 37.8758C15.5537 40.7056 17.8158 42.9996 20.6063 42.9996Z" fill="white"/>
<path d="M5.05255 10.2477C7.84299 10.2477 10.1051 7.95365 10.1051 5.12383C10.1051 2.29402 7.84299 0 5.05255 0C2.2621 0 0 2.29402 0 5.12383C0 7.95365 2.2621 10.2477 5.05255 10.2477Z" fill="white"/>
<path d="M5.05255 26.6238C7.84299 26.6238 10.1051 24.3298 10.1051 21.5C10.1051 18.6702 7.84299 16.3762 5.05255 16.3762C2.2621 16.3762 0 18.6702 0 21.5C0 24.3298 2.2621 26.6238 5.05255 26.6238Z" fill="white"/>
<path d="M5.05255 42.9996C7.84299 42.9996 10.1051 40.7056 10.1051 37.8758C10.1051 35.046 7.84299 32.752 5.05255 32.752C2.2621 32.752 0 35.046 0 37.8758C0 40.7056 2.2621 42.9996 5.05255 42.9996Z" fill="white"/>
</svg>
