<svg width="14" height="16" viewBox="0 0 14 16" fill="none" xmlns="http://www.w3.org/2000/svg">
<path d="M14 12.5C13.5 14 10 16 7 16C3 16 0.5 14 0 12.5C1.5 8 11.075 6.5 14 12.5ZM7.5 0C8.44815 0 9.35746 0.370856 10.0279 1.03098C10.6983 1.69111 11.075 2.58644 11.075 3.52C11.075 4.45356 10.6983 5.34889 10.0279 6.00902C9.35746 6.66914 8.44815 7.04 7.5 7.04C6.55185 7.04 5.64254 6.66914 4.97209 6.00902C4.30165 5.34889 3.925 4.45356 3.925 3.52C3.925 2.58644 4.30165 1.69111 4.97209 1.03098C5.64254 0.370856 6.55185 0 7.5 0Z" fill="black"/>
</svg>
